<?xml version="1.0" standalone="no"?>
<!DOCTYPE svg PUBLIC "-//W3C//DTD SVG 20010904//EN"
 "http://www.w3.org/TR/2001/REC-SVG-20010904/DTD/svg10.dtd">
<svg version="1.0" xmlns="http://www.w3.org/2000/svg"
 width="300.000000pt" height="300.000000pt" viewBox="0 0 300.000000 300.000000"
 preserveAspectRatio="xMidYMid meet">
<g transform="translate(0.000000,300.000000) scale(0.100000,-0.100000)"
fill="#000000" stroke="none">
<path d="M380 2638 c0 -22 9 -26 122 -52 542 -126 1060 -423 1381 -794 241
-279 393 -578 480 -949 23 -99 21 -121 -8 -94 -6 4 -85 47 -177 95 -166 86
-167 86 -179 64 -7 -13 -8 -23 -2 -25 14 -5 506 -323 525 -340 15 -13 18 -13
22 -2 5 19 124 654 122 655 0 1 -10 4 -22 8 -19 6 -25 -9 -84 -219 l-65 -225
-21 104 c-63 299 -216 621 -413 866 -77 97 -234 252 -342 340 -304 245 -704
438 -1126 543 -209 52 -213 53 -213 25z m1574 -846 c236 -267 384 -549 472
-896 35 -140 55 -167 96 -129 17 15 18 15 18 -10 0 -36 -20 -130 -31 -141 -8
-9 -139 70 -139 84 0 4 7 10 15 14 32 12 35 50 10 160 -74 328 -254 690 -459
923 -22 26 -35 43 -27 38 8 -4 28 -24 45 -43z"/>
</g>
</svg>
